<svg width="1170" height="585" fill="none" xmlns="http://www.w3.org/2000/svg"><g filter="url('#a')"><g clip-path="url('#b')"><ellipse opacity=".5" rx="507.305" ry="467.426" transform="matrix(.89443 -.4472 .55472 .83204 202.041 369.531)" fill="#F40009"/><ellipse rx="578.838" ry="314.841" transform="matrix(-.99817 -.06045 -.08049 .99676 1001.88 339.184)" fill="#F40009"/><path opacity=".5" d="M259.693 706.188C183.558 675.494 44.841 845.273-15 934c2.163-319.736 9.517-920.84 21.63-767.366C21.77 358.475 337.558 449.6 400.283 449.6c62.725 0 170.872 76.737 151.405 208.628-19.466 131.891-196.827 86.329-291.996 47.96Z" fill="#F9C7C7"/><path opacity=".5" d="M196.038 683.188C114.818 652.494-33.162 822.273-97 911c2.307-319.736 10.153-920.84 23.074-767.366C-57.774 335.475 279.104 426.6 346.018 426.6c66.914 0 182.284 76.737 161.517 208.628-20.766 131.891-209.972 86.329-311.497 47.96Z" fill="#F40009"/><path opacity=".6" d="M937-30c79.48 30.695 226.53-53.273 289-142-2.26 319.736-9.94 920.839-22.58 767.366C1187.61 403.525 857.951 312.4 792.47 312.4s-178.38-76.737-158.058-208.628C654.734-28.118 837.649-68.368 937-30Z" fill="#FCDA9E"/><path opacity=".4" d="M893-32c76.135 30.656 220.16 27.615 280-61-2.16 319.332-9.52 919.677-21.63 766.397-15.14-191.599-330.929-282.609-393.654-282.609-62.725 0-170.872-76.64-151.405-208.364C625.777 50.699 797.831-70.32 893-32Z" fill="#F40009"/></g></g><defs><clipPath id="b"><path d="M0 20C0 8.954 8.954 0 20 0h1130c11.05 0 20 8.954 20 20v545.001c0 11.045-8.95 20-20 20H20c-11.046 0-20-8.955-20-20V20Z" fill="#fff"/></clipPath><filter id="a" x="-100" y="-100" width="1370" height="785.001" filterUnits="userSpaceOnUse" color-interpolation-filters="sRGB"><feFlood flood-opacity="0" result="BackgroundImageFix"/><feBlend in="SourceGraphic" in2="BackgroundImageFix" result="shape"/><feGaussianBlur stdDeviation="50" result="effect1_foregroundBlur_323_3354"/></filter></defs></svg>