<svg width="301" height="90" fill="none" xmlns="http://www.w3.org/2000/svg"><path d="M102.109 89.2c19.2 0 33.6-13.92 33.6-32.4 0-18.48-14.4-32.4-33.6-32.4-19.2 0-33.6 13.92-33.6 32.4 0 18.48 14.4 32.4 33.6 32.4Zm-13.8-32.4c0-8.16 5.88-14.4 13.8-14.4 7.92 0 13.8 6.24 13.8 14.4s-5.88 14.4-13.8 14.4c-7.92 0-13.8-6.24-13.8-14.4ZM142.563 88h20.4V49.12c7.2-5.64 9.12-6.12 11.4-6.12 3 0 5.4 2.4 5.4 6v39h20.4V46.6c0-13.8-10.08-22.2-22.2-22.2-4.68 0-8.76.72-15.48 4.92V25.6h-19.92V88Zm127.043-48.84c-7.56-11.28-19.68-14.76-28.92-14.76-19.2 0-34.2 14.52-34.2 33 0 17.76 14.52 31.8 33 31.8 19.2 0 34.2-14.28 34.2-32.4h-18.6c0 8.76-6.6 15.6-15 15.6-1.2 0-2.28-.12-3.36-.36l32.88-32.88Zm-44.52 17.64c0-8.76 6.6-15.6 15-15.6 1.08 0 2.28.12 3.36.36l-18.12 18.12c-.12-.96-.24-1.92-.24-2.88Zm63.281 32.4c7.08 0 12.6-5.52 12.6-12.6s-5.52-12.6-12.6-12.6-12.6 5.52-12.6 12.6 5.52 12.6 12.6 12.6Zm-267.321.532c26.657 0 44.43-17.746 44.43-44.366S47.702 1 21.045 1H0v88.732h21.046Zm0-20.281V21.28h2.338c12.627 0 21.046 9.635 21.046 24.085 0 14.45-8.419 24.085-21.046 24.085h-2.338Z" fill="#FDF8F8"/></svg>