<svg width="547" height="799" fill="none" xmlns="http://www.w3.org/2000/svg"><g filter="url('#a')"><g clip-path="url('#b')"><ellipse opacity=".5" rx="507.305" ry="467.426" transform="matrix(.4472 .89443 -.83204 .55472 197.469 17.04)" fill="#7A33A7"/><ellipse rx="578.838" ry="314.841" transform="matrix(.06045 -.99817 -.99676 -.08049 227.816 816.88)" fill="#26B4D8"/><path opacity=".5" d="M-139.188 74.693C-108.494-1.442-278.273-140.159-367-200c319.736 2.163 920.839 9.517 767.366 21.629C208.525-163.23 117.4 152.559 117.4 215.284c0 62.725-76.737 170.872-208.628 151.405-131.891-19.466-86.329-196.827-47.96-291.996Z" fill="#1F79A9"/><path opacity=".5" d="M-116.188 11.038C-85.493-70.182-255.273-218.162-344-282c319.736 2.307 920.839 10.153 767.366 23.074C231.525-242.774 140.4 94.104 140.4 161.018c0 66.914-76.737 182.284-208.628 161.517-131.891-20.766-86.329-209.972-47.96-311.497Z" fill="#1F79A9"/><path opacity=".6" d="M597 752c-30.695 79.481 53.273 226.53 142 289-319.736-2.26-920.839-9.94-767.366-22.58C163.475 1002.61 254.6 672.951 254.6 607.47s76.737-178.38 208.628-158.058C595.119 469.734 635.368 652.649 597 752Z" fill="#6E55AD"/><path opacity=".4" d="M599 708c-30.656 76.135-27.615 220.159 61 280-319.332-2.163-919.677-9.517-766.397-21.629 191.599-15.141 282.609-330.93 282.609-393.655 0-62.725 76.639-170.872 208.364-151.405C516.301 440.777 637.32 612.831 599 708Z" fill="#6E55AD"/></g></g><defs><clipPath id="b"><path d="M427 100c11.046 0 20 8.954 20 20v559c0 11.046-8.954 20-20 20H120c-11.046 0-20-8.954-20-20V120c0-11.046 8.954-20 20-20h307Z" fill="#fff"/></clipPath><filter id="a" x="0" y="0" width="547" height="799" filterUnits="userSpaceOnUse" color-interpolation-filters="sRGB"><feFlood flood-opacity="0" result="BackgroundImageFix"/><feBlend in="SourceGraphic" in2="BackgroundImageFix" result="shape"/><feGaussianBlur stdDeviation="50" result="effect1_foregroundBlur_1654_19976"/></filter></defs></svg>