<svg width="1170" height="586" fill="none" xmlns="http://www.w3.org/2000/svg"><g clip-path="url('#a')"><rect y=".719" width="1170" height="585.001" rx="20" fill="#09392A"/><g filter="url('#b')"><g clip-path="url('#c')"><ellipse opacity=".5" cx="507.305" cy="467.426" rx="507.305" ry="467.426" transform="matrix(.89443 -.4472 .55472 .83204 -511 208.199)" fill="#1A7F5E"/><ellipse cx="578.838" cy="314.841" rx="578.838" ry="314.841" transform="matrix(-.99817 -.06045 -.08049 .99676 1605 61.072)" fill="#1A7F5E"/><path opacity=".5" d="M259.693 706.908C183.558 676.213 44.841 845.993-15 934.72c2.163-319.736 9.517-920.84 21.63-767.367C21.77 359.195 337.558 450.32 400.283 450.32c62.725 0 170.872 76.736 151.405 208.627-19.466 131.891-196.827 86.329-291.996 47.961Z" fill="#61BFA0"/><path opacity=".5" d="M196.038 683.908C114.818 653.213-33.162 822.993-97 911.72c2.307-319.736 10.153-920.84 23.074-767.367 16.152 191.842 353.03 282.967 419.944 282.967 66.914 0 182.284 76.736 161.517 208.627-20.766 131.891-209.972 86.329-311.497 47.961Z" fill="#61BFA0"/><path opacity=".6" d="M937-29.28c79.48 30.694 226.53-53.274 289-142-2.26 319.735-9.94 920.839-22.58 767.366-15.81-191.842-345.469-282.967-410.95-282.967s-178.38-76.736-158.058-208.627C654.734-27.399 837.649-67.648 937-29.28Z" fill="#FCDA9E"/><path opacity=".4" d="M893-31.28c76.135 30.655 220.16 27.614 280-61-2.16 319.332-9.52 919.676-21.63 766.397-15.14-191.6-330.929-282.609-393.654-282.609-62.725 0-170.872-76.64-151.405-208.365C625.777 51.419 797.831-69.6 893-31.28Z" fill="#FCDA9E"/></g></g><path opacity=".5" fill-rule="evenodd" clip-rule="evenodd" d="M1105.82 432.563a6.34 6.34 0 0 1 8.37-3.309c3.21 1.408 4.68 5.161 3.28 8.386-.26.613-.98.897-1.59.635a1.197 1.197 0 0 1-.64-1.584c.87-2.016-.05-4.359-2.04-5.23-1.89-.829-4.08-.029-5.02 1.797l-.13.256-12.6 29.098c-.89 2.341-2.3 4.306-4.08 5.805l1.05.14.72.105 1.41.224c.23.039.47.079.7.12l1.36.255c12.83 2.515 21.39 7.687 21.39 13.919 0 4.446-4.38 8.331-11.44 11.105l-.98.371c-.5.182-1.01.359-1.53.53l-1.06.336c-1.07.328-2.19.634-3.35.916l-1.17.274-1.2.258-1.23.242c-.41.077-.83.152-1.25.224l-1.27.208c-.43.067-.86.13-1.29.191l-1.32.173-1.33.155-1.36.136-1.37.118c-.23.018-.47.036-.7.052l-1.4.09-1.41.07-.72.028-1.44.04-1.45.021-.73.002-.73-.002-1.45-.021-1.44-.04-.72-.028-1.41-.07-1.4-.09c-.23-.016-.47-.034-.7-.052l-1.37-.118-1.36-.136-1.33-.155-1.32-.173c-.22-.03-.43-.061-.65-.093l-1.28-.199c-.43-.07-.85-.142-1.26-.217l-1.24-.233c-.2-.04-.41-.081-.61-.123l-1.2-.258-1.17-.274a59.028 59.028 0 0 1-3.35-.916l-1.06-.336c-.52-.171-1.03-.348-1.53-.53l-.98-.371c-7.06-2.774-11.44-6.659-11.44-11.105 0-4.248 3.99-7.994 10.54-10.743l.98-.396c2.48-.969 5.3-1.803 8.38-2.475l1.25-.261.63-.123 1.29-.235c.21-.037.43-.074.65-.11l1.32-.207 1.35-.188.68-.087 1.39-.16c.92-.1 1.87-.188 2.82-.261l1.18-.082a14.497 14.497 0 0 1-4.45-10.98c.05-1.639 1.39-2.385 3.04-2.117l.26.051 22.87 4.631 11.64-26.874Zm-30.81 37.223.01.307c-.98.04-1.96.095-2.92.163l-1.43.113c-.71.062-1.41.131-2.11.208l-1.37.163c-.23.029-.45.059-.68.089l-1.33.192c-.66.1-1.32.208-1.96.322l-1.26.236c-.42.082-.83.167-1.24.254l-1.21.27-1.17.286c-.78.196-1.53.402-2.26.618l-1.07.331c-7.75 2.477-12.6 6.071-12.6 9.842 0 2.486 2.08 4.875 5.68 6.92l.74.405c1.02.532 2.13 1.039 3.35 1.516l.93.352c.63.23 1.28.453 1.95.667l1.03.315c.87.257 1.78.5 2.71.729l1.13.267 1.16.252.59.12 1.21.23 1.22.213 1.26.197 1.27.181c.43.057.86.112 1.3.163l1.32.146.66.066 1.35.119 1.37.1.69.043 1.39.071 1.41.051.72.019 1.43.02.72.003.72-.003 1.43-.02.72-.019 1.41-.051 1.39-.071.69-.043 1.37-.1 1.35-.119.66-.066 1.32-.146c.22-.025.44-.052.65-.079l1.29-.172.63-.093 1.26-.197 1.22-.213 1.21-.23.59-.12 1.16-.252 1.13-.267c.93-.229 1.84-.472 2.71-.729l1.03-.315a50.41 50.41 0 0 0 1.95-.667l.93-.352c1.22-.477 2.33-.984 3.35-1.516l.74-.405c3.6-2.045 5.68-4.434 5.68-6.92 0-3.841-5.11-7.575-13.36-10.08l-1.14-.334a66.812 66.812 0 0 0-6.26-1.418l-1.36-.229c-.68-.11-1.38-.212-2.09-.306l-1.43-.179-.72-.082.08-.688c-2.87 1.638-6.32 2.258-9.85 1.594-1.61-.302-3.1-.878-4.45-1.672Zm-4.57-12.677-.01.273c.01 5.678 3.96 10.667 9.48 11.705 5.6 1.053 10.92-1.743 13.12-6.959l.17-.426-22.4-4.537a2.41 2.41 0 0 0-.27-.047l-.09-.009Zm-12.08 17.519c-.19-.672-.87-1.054-1.51-.855-5.58 1.732-8.85 4.087-8.85 7.087 0 2.769 3.05 5.119 8.06 6.829l.93.304c.48.148.97.291 1.48.429l1.03.267c.18.043.35.086.53.128l1.09.245c.19.039.37.078.56.116l1.15.221c.19.036.39.071.58.105l1.2.197 1.22.18.63.084 1.27.156.64.071 1.32.129c.44.04.88.078 1.34.112l1.36.094 1.38.076 1.41.057 1.43.038.72.013 1.45.009.78-.003 1.54-.022c1.28-.029 2.54-.08 3.77-.153l1.46-.099 1.44-.12c.72-.065 1.42-.137 2.11-.217l1.36-.17 1.33-.189c8.1-1.225 14.19-3.529 16.2-6.472.39-.57.27-1.363-.28-1.769a1.176 1.176 0 0 0-1.69.296c-.86 1.26-2.93 2.433-5.85 3.422l-.9.291c-.77.238-1.6.463-2.47.675l-1.06.247-1.11.233-.57.112-1.17.212-1.21.196-1.24.181-.64.084-1.29.155c-.21.025-.43.049-.65.072l-1.34.129c-.22.02-.45.039-.68.058l-1.37.102c-.24.015-.47.03-.7.043l-1.41.073a94 94 0 0 1-1.44.053l-1.45.032-1.47.011-1.43-.011c-.47-.007-.94-.017-1.41-.031l-1.39-.05-1.37-.07a83.7 83.7 0 0 1-1.35-.088l-1.32-.106-1.3-.123-1.27-.139-.63-.076-1.22-.163-1.19-.177-1.16-.192c-.19-.033-.38-.067-.56-.101l-1.11-.211-1.06-.224-1.02-.236-.99-.247-.93-.257c-.16-.044-.31-.088-.46-.132l-.87-.272c-3.94-1.288-6.31-2.862-6.31-4.417 0-1.421 2.5-3.224 7.11-4.654.64-.2 1.01-.906.82-1.578Zm21.25-.889.64-.011 1.26-.008 1.24.009 1.21.025 1.19.041.58.027 1.14.066c.19.012.38.025.56.039l1.1.09 1.06.106c.18.019.35.038.52.059l1.01.129c.17.023.33.047.49.071l.95.153.91.168c4.6.908 7.49 2.429 7.53 4.483.04 1.594-1.35 2.782-3.84 3.733l-.75.265c-.51.173-1.07.338-1.66.496-.64.172-1.3-.225-1.47-.886-.17-.662.22-1.337.86-1.509 1.59-.424 2.83-.899 3.64-1.382.4-.24.63-.436.73-.552l.07-.088c.01-.006.01-.01.01-.014v-.008c-.01-.317-.46-.655-1.27-.987l-.43-.166-.5-.163c-.03-.011-.07-.022-.1-.032-.06-.017-.11-.033-.17-.049l-.57-.159-.63-.155-.68-.151c-.12-.025-.23-.049-.36-.074l-.74-.142-.8-.136c-.13-.022-.27-.043-.41-.065l-.85-.124-.9-.116-.92-.106-.97-.096-.99-.085-.51-.038-1.03-.067-1.07-.055-.54-.022-1.65-.044-1.12-.01-1.14.005-.58.009c-.77.015-1.53.04-2.28.074l-1.48.081-1.45.106c-5.01.411-9.28 1.253-11.78 2.332-.61.265-1.32-.032-1.58-.662-.25-.631.04-1.356.65-1.62 3.02-1.3 8.11-2.247 13.96-2.623l1.54-.085c.78-.036 1.58-.062 2.37-.077ZM666 220.226c-.055-9.834 13.421-17.506 29.907-17.506 7.948 0 15.424 1.792 21 4.946 5.718 3.235 9.067 7.693 9.093 12.548a1.147 1.147 0 0 1-1 1.132v2.374h4.879c.617 0 1.117.516 1.121 1.154.001.288-.008.574-.028.858H731l-.075 15.197c.055 9.994-12.926 17.791-28.804 17.791a1.133 1.133 0 0 1-1.111-.999l-.01-.157v-15.211h.303a1.176 1.176 0 0 1-.303-.793v-4.84h-3.829c-.03.244-.138.463-.3.634H697v15.21c0 .639-.517 1.156-1.154 1.156-7.884 0-15.299-1.82-20.826-5.025-5.499-3.186-8.79-7.543-9.008-12.315l-.012-.449.073-14.527a10.75 10.75 0 0 1-.073-1.178Zm37.241 22.481-.001 13.686.107-.001c14.018-.374 25.062-7.113 25.332-15.113l.005-.349.044-9.018c-4.261 6.213-14.06 10.529-25.487 10.795ZM723 221.357v2.363h-20.879c-.619 0-1.121.519-1.121 1.16v9.84h-3.82l-.001-13.362 25.821-.001Zm-54.618-.239.002-.386h-.037a8.183 8.183 0 0 1-.02-.519c-.046-8.239 12.214-15.217 27.58-15.217 7.555 0 14.629 1.695 19.835 4.639l.499.29c4.097 2.439 6.638 5.499 7.274 8.735l.071.421-27.57.002-.158.011a1.146 1.146 0 0 0-1.005 1.127l-.001 15.208-.566-.014c-6.876-.237-13.208-1.884-18.025-4.609-4.676-2.645-7.46-6.075-7.879-9.688Zm-.029 5.906-.045 8.907c.022 4.004 2.843 7.851 7.867 10.762 4.764 2.762 11.108 4.442 17.951 4.685l.565.013.001-13.687c-7.431-.187-14.32-1.944-19.596-4.929-2.897-1.638-5.186-3.591-6.743-5.751Zm18.027 28.696 1.62 1.857c-2.4 2.759-6.239 2.854-8.738.285l-.262-.285 1.621-1.857c1.521 1.75 3.945 1.826 5.546.228l.213-.228Zm8.607 0c.212 3.522-2.237 6.574-5.524 6.97l-.32.03-.143-2.365c2.117-.141 3.746-1.997 3.749-4.207l-.008-.278 2.246-.15Zm8.477 6.254c-1.882 1.025-4.301.495-5.516-1.254L696 261.949l.205.278c2.044 2.623 5.906 3.289 8.795 1.459l-1.293-1.854-.243.142Zm25.193-35.702.031-.233H703.24v14.346l.745-.022c13.124-.535 23.543-6.667 24.672-14.091Zm-46.936.448c.706 0 1.279.448 1.279 1 0 .506-.481.925-1.105.991l-.174.009h-.442c-.706 0-1.279-.448-1.279-1 0-.506.481-.924 1.105-.991l.174-.009h.442Zm28.279 9c0-.552-.572-1-1.278-1h-.444l-.173.009c-.624.067-1.105.485-1.105.991 0 .552.572 1 1.278 1h.444l.173-.009c.624-.066 1.105-.485 1.105-.991Zm5.721-6c.706 0 1.279.448 1.279 1 0 .506-.481.925-1.105.991l-.174.009h-.442c-.706 0-1.279-.448-1.279-1 0-.506.481-.924 1.105-.991l.174-.009h.442Zm-33.721-17c0-.552-.572-1-1.278-1h-.444l-.173.009c-.624.067-1.105.485-1.105.991 0 .552.572 1 1.278 1h.444l.173-.009c.624-.066 1.105-.485 1.105-.991Zm26.721 1c.706 0 1.279.448 1.279 1 0 .506-.481.925-1.105.991l-.174.009h-.442c-.706 0-1.279-.448-1.279-1 0-.506.481-.924 1.105-.991l.174-.009h.442Zm-16.721 2c0-.552-.572-1-1.278-1h-.444l-.173.009c-.624.067-1.105.485-1.105.991 0 .552.572 1 1.278 1h.444l.173-.009c.624-.066 1.105-.485 1.105-.991Zm77.317-143.419c-5.916-3.528-13.182-4.69-19.987-2.398-2.458.828-6.586 3.11-8.652 4.83l-1.05.868-1.034.841-1.018.814-.503.397-.994.774-.491.376-.969.734-.954.707-.936.682-.921.654-.454.318-.896.616-.442.298-.872.577-.855.552-.838.525-.413.254-.814.487-.797.463-.781.437-.764.413c-.251.133-.5.262-.747.387l-.73.363-.359.172-.706.326c-.348.157-.69.305-1.026.443l-.664.266c-.218.084-.434.164-.646.24l-.63.218c-3.209 1.06-5.74 1.165-7.571.394-3.474-1.463-3.826-6.802-1.157-10.743 4.248-6.269 15.102-9.254 32.62-6.614a.94.94 0 0 0 1.067-.8.948.948 0 0 0-.79-1.08c-18.156-2.736-29.719.445-34.446 7.42-3.257 4.809-2.812 11.55 1.985 13.57 2.949 1.243 7.13.684 12.525-1.822l.76-.363c.129-.062.257-.126.387-.19l.784-.4.8-.427c.404-.22.814-.448 1.229-.687l.84-.49.425-.255.863-.53.878-.554.445-.287.902-.594.918-.62.933-.647.473-.333.956-.686.972-.713c.164-.12.328-.243.492-.366l.996-.752.504-.387 1.019-.792 1.034-.82 1.05-.846 1.066-.874.538-.447c1.886-1.57 5.81-3.74 8.052-4.494 6.253-2.106 12.966-1.033 18.44 2.232.6.358 1.159.73 1.674 1.107l.501.379c.487.38.928.763 1.322 1.14l.378.376c1.629 1.677 2.269 3.18 1.632 3.73-1.209 1.04-2.916 1.16-5.601.434l-.551-.156-.581-.18-.304-.099-.642-.22-.694-.248-.755-.282-.825-.317-4.513-1.776-1.537-.585c-3.649-1.357-6.787-2.303-10.087-2.959a.94.94 0 0 0-1.102.75.95.95 0 0 0 .74 1.115c3.419.679 6.676 1.686 10.579 3.17l.472.181 5.21 2.046.815.309.749.274.695.243.329.111.629.201c.306.095.6.18.888.258 3.22.871 5.524.71 7.304-.824 2.537-2.187-.487-6.663-5.771-9.815Zm-27.542 8.846c1.576.867 1.911 1.95 1.545 3.685 1.387.354 2.509 1.503 2.54 2.96l-.002.164.077.067c1.319 1.186 1.412 2.351.285 4.715l-1.043 2.144-1.749 3.666c1.451 1.923 2.676 2.887 3.742 2.867 1.364-.026 2.892-1.7 4.49-5.56l.31-.775c1.726-4.455 5.5-5.467 8.579-2.475.672.655.543 1.235-.059 2.205l-.827 1.27a16.86 16.86 0 0 0-.828 1.46c-.701 1.396-1.229 2.963-1.555 4.822l-.084.514c-.517 3.41-2.645 7.533-4.756 9.574l-.123.112-.093 3.1a.936.936 0 0 1-.844.906l-.117.004a.937.937 0 0 1-.9-.85l-.004-.118.107-3.505a.944.944 0 0 1 .341-.699c1.817-1.495 3.908-5.323 4.488-8.473l.056-.334c.346-2.286.967-4.203 1.818-5.9.284-.566.582-1.086.919-1.62l.776-1.188.11-.182-.06-.053c-1.927-1.604-3.901-.994-5.102 1.855l-.104.258c-1.957 5.051-4.06 7.483-6.502 7.53-1.974.038-3.687-1.4-5.624-4.1l-.028-.04-.554-.238.186-.39c-.348-.698-.669-1.636-.978-2.784a38.272 38.272 0 0 1-.458-1.895l-.195-.944-.122-.648-.038-.217a.94.94 0 0 1 .022-.412l.531-1.881.704-2.428.329-1.096.276-.88.124-.42c.344-1.25.227-1.724-.501-2.125-.746-.411-1.587-.167-1.99.622l-.227.46-.291.62-.683 1.5-.614 1.379-.758 1.722c-.251.478-.362.76-.392 1.04l-.007.12-.036 7.154a4.032 4.032 0 0 0 .125 1.396l.149.51.307.976.251.764.429 1.271.636 1.832.662 1.855.48 1.319.443 1.188.384.996.211.527.055.19.98 5.375a.938.938 0 0 1-.749 1.093.934.934 0 0 1-1.058-.64l-.028-.114-.963-5.282-.161-.401-.328-.849-.508-1.358-.559-1.533-.288-.803-.741-2.111-.384-1.119-.349-1.042-.39-1.209-.22-.728-.058-.202a5.848 5.848 0 0 1-.208-1.692l.018-.294.032-7.096c.017-.71.204-1.227.586-1.948l.733-1.671 1.084-2.42.535-1.146.241-.488c.889-1.741 2.89-2.323 4.544-1.41Zm.834 6.139.176-.57c.647.163 1.152.75.989 1.426l-.023.139a.957.957 0 0 0 .388.848l.125.094.219.174c.563.473.643.796.232 1.758l-.166.368-.098.206-.296.602-.841 1.732-1.025 2.15c-.094-.298-.188-.62-.281-.964a39.414 39.414 0 0 1-.566-2.427l-.172-.894.471-1.665.448-1.553.42-1.424Zm-1.823 421.678a2.515 2.515 0 0 0-2.336.092l-31.198 17.997-.161.102a2.5 2.5 0 0 0-1.042 1.568H706l.001.433-.001.062.001.025.013 7.3.007.186a2.453 2.453 0 0 0 1.218 1.931l30.457 17.664.174.095c.806.417 1.556.427 2.364-.132l15.19-8.75 6.118 8.231c.447.6 1.148.952 1.901.952a2.363 2.363 0 0 0 1.9-.975l19.188-25.775a2.367 2.367 0 0 0-.498-3.323l-.767-.556c-5.156-3.763-13.279-6.371-19.836-6.371-1.522 0-3.142.153-4.798.438l.368-.628-18.032-10.47-.182-.096Zm16.185 11.52-16.937-9.834a.653.653 0 0 0-.55-.05l-.105.049-31.199 17.997a.66.66 0 0 0-.329.573.66.66 0 0 0 .233.506l.095.067 11.417 6.63a.921.921 0 0 1 .451.923l-.026.121c-.172.61.188 1.283 1.178 1.859 1.142.663 2.807.963 4.458.813a.927.927 0 0 1 .421.06l.129.062 12.968 7.531a.66.66 0 0 0 .554.049l.103-.048 11.046-6.372-8.412-11.317a2.368 2.368 0 0 1 .503-3.321l.76-.555c3.59-2.617 8.479-4.688 13.242-5.743Zm-4.986 22.426-11.225 6.475a2.513 2.513 0 0 1-2.32.099l-.197-.103-12.722-7.388-.074.007c-1.763.099-3.524-.221-4.894-.928l-.287-.157c-1.372-.797-2.15-1.945-2.14-3.167l.002-.047-10.304-5.983.009 4.822c0 .192.085.372.23.494l.093.065 30.458 17.665c.275.16.352.183.55.061l.094-.061 15.079-8.689-2.352-3.165Zm11.445-21.376c6.174 0 13.922 2.488 18.767 6.024l.765.554a.55.55 0 0 1 .215.362.544.544 0 0 1-.102.412l-1.466 1.969-.058-.041c-5.162-3.548-12.709-6.094-18.619-6.094-5.522 0-12.663 2.406-17.881 5.817l-1.126-1.515a.553.553 0 0 1 .115-.775l.76-.555c4.96-3.616 12.654-6.158 18.63-6.158Zm-17.291 10.467L763 554.686a.54.54 0 0 0 .435.22.55.55 0 0 0 .444-.234l16.642-22.356c-4.862-3.35-12.061-5.784-17.589-5.784-5.115 0-11.87 2.271-16.793 5.469Zm10.178-1.118c2.669-.578 5.233.413 5.633 2.513.171.895-.106 1.797-.718 2.581a.898.898 0 0 1-.422.301l.123.58c.203.951-.061 1.915-.691 2.66a3.397 3.397 0 0 1-1.942 1.139 3.477 3.477 0 0 1-2.258-.326c-.815-.419-1.418-1.124-1.664-1.977l-.055-.216-.091-.433a.864.864 0 0 1-.578-.092c-.85-.467-1.435-1.186-1.602-2.079-.402-2.099 1.594-4.072 4.265-4.651Zm-1.96 4.952a.922.922 0 0 1 .374-.161c.452-.087.893.161 1.04.565l.033.114.305 1.441c.092.435.383.796.797 1.01.324.166.68.221 1.027.153.35-.069.658-.253.89-.528a1.43 1.43 0 0 0 .349-1.063l-.025-.164-.305-1.443c-.099-.47.22-.927.713-1.022a.987.987 0 0 1 .306-.009c.273-.358.37-.684.319-.952-.156-.818-1.686-1.409-3.502-1.016-1.819.394-3.013 1.574-2.856 2.397.046.242.22.477.535.678Zm6.643 6.886a3 3 0 1 1 6-.003 3 3 0 0 1-6 .003Zm4.232 0c0-.685-.551-1.238-1.231-1.238-.681 0-1.233.552-1.233 1.238 0 .684.552 1.236 1.233 1.236.679 0 1.231-.553 1.231-1.236Zm4.267-13.001a4.499 4.499 0 0 0-4.499 4.5 4.5 4.5 0 1 0 4.499-4.5Zm0 1.849a2.647 2.647 0 0 1 2.645 2.651 2.647 2.647 0 0 1-2.645 2.651 2.646 2.646 0 0 1-2.643-2.651 2.647 2.647 0 0 1 2.643-2.651ZM655.122 368.918c.876 0 1.589.666 1.664 1.416l.006.141.774 6.376a.945.945 0 0 1-.324.832c1.278.527 2.529 1.367 4.091 2.646l5.713 4.726 4.523 3.725 10.106 3.182c2.144.443 3.782 2.416 3.892 4.617l.006.236v6.979c0 .464-.149.915-.423 1.288l-.124.155-2.594 2.933a2.213 2.213 0 0 1-1.454.738l-.212.01h-2.253c-.474 3.943-3.722 7-7.663 7-3.941 0-7.188-3.057-7.663-7h-23.228c-.475 3.943-3.722 7-7.664 7-3.941 0-7.187-3.057-7.662-7h-2.979a2.227 2.227 0 0 1-1.448-.535l-.146-.135-3.869-3.977a2.18 2.18 0 0 1-.607-1.307l-.011-.211v-9.305c0-2.271 1.643-4.329 3.811-4.802l.226-.043 3.081-.549.679-.654 1.06-1.002 1.164-1.077.809-.736.787-.704.901-.792.87-.748c1.709-1.452 3.221-2.629 4.462-3.443l1.009-.637c.747-.454 1.437-.782 2.189-1a.94.94 0 0 1-.048-.291l.007-.12.768-6.261c0-.866.662-1.582 1.516-1.664l.162-.007h16.096Zm-16.611 8.028c.175-.011.356-.019.543-.024l.394-.004h13.209c1.143 0 2.115.079 3.016.276l-.022-.116-.753-6.253h-15.643l-.744 6.121Zm-13.896 30.131c.406-4.02 3.687-7.159 7.68-7.159 3.995 0 7.275 3.139 7.681 7.159h23.193c.406-4.02 3.687-7.159 7.681-7.159s7.275 3.139 7.681 7.159h2.235a.317.317 0 0 0 .193-.064l.052-.048 2.594-2.934a.35.35 0 0 0 .079-.15l.01-.087v-4.876h-1.731c-.519 0-.939-.49-.939-1.095 0-.557.358-1.018.821-1.085l.118-.009h1.73c-.04-1.339-1.001-2.576-2.306-2.943l-.193-.047-10.551-3.315-10.178-8.404c-3.019-2.521-4.52-3.213-7.474-3.259l-.334-.003h-13.209c-1.668 0-2.621.256-3.775.919l-.605.368-.323.204c-.616.389-1.324.892-2.106 1.494l-.689.539-.723.585-.757.629-.786.671-.815.709-.817.726-.795.718-.778.712-.747.694-1.032.975-.611.588-.484.474-3.671.653c-1.311.215-2.384 1.451-2.475 2.842l-.007.19v9.305c0 .07.021.138.058.195l.042.054 3.867 3.973a.33.33 0 0 0 .171.095l.064.007h2.961Zm16.532-24.272h4.426v8.224h-10.782a.288.288 0 0 1-.241-.135.326.326 0 0 1-.021-.31l.234-.474a28.564 28.564 0 0 1 2.284-3.698c1.004-1.38 2.005-2.356 2.956-2.999.332-.224.634-.391.901-.51l.092-.039c.057-.024.107-.043.151-.059Zm-6.355 10.113h28.604c.91 0 1.72-.569 2.039-1.425a2.22 2.22 0 0 0-.59-2.415l-2.288-2.025-2.552-2.227-1.049-.893-.62-.512-.558-.446-.499-.391-.449-.339c-1.42-1.047-2.137-1.287-3.524-1.322l-.437-.005h-11.864l-.233.028c-.45.11-1.103.399-1.864.914-1.137.769-2.297 1.9-3.43 3.456a30.276 30.276 0 0 0-2.438 3.95l-.262.529a2.184 2.184 0 0 0 .138 2.099 2.224 2.224 0 0 0 1.876 1.024Zm28.604-1.888-15.823-.001v-8.223h5.463l.307.006.277.015.253.027c.49.071.891.243 1.487.654l.316.225.356.27.405.316.989.797.908.766 1.47 1.27.938.82 2.843 2.512a.33.33 0 0 1 .079.353.289.289 0 0 1-.268.193Zm-36.952 16.888c0-3.369 2.624-6.093 5.851-6.093 3.228 0 5.852 2.724 5.852 6.093 0 3.369-2.624 6.093-5.852 6.093-3.227 0-5.851-2.724-5.851-6.093Zm44.406-6.093c-3.228 0-5.852 2.724-5.852 6.093 0 3.369 2.624 6.093 5.852 6.093s5.852-2.725 5.852-6.093c0-3.369-2.624-6.093-5.852-6.093Zm-32.871-4.813c0-.604-.421-1.094-.939-1.094h-2.527l-.118.008c-.463.068-.822.528-.822 1.086 0 .604.421 1.094.94 1.094h2.527l.117-.008c.464-.068.822-.528.822-1.086Zm13.48-1.094c.519 0 .939.49.939 1.094 0 .558-.358 1.018-.821 1.086l-.118.008h-2.528c-.519 0-.939-.49-.939-1.094 0-.558.358-1.018.821-1.086l.118-.008h2.528Zm1.114-22c0-.553-.415-1-.927-1H641.5l-.116.008c-.457.061-.811.482-.811.992 0 .552.415 1 .927 1h10.146l.117-.008c.457-.062.81-.482.81-.992Zm420.747-175.575a1.189 1.189 0 0 0-1.59-.492c-.46.235-1.04.615-1.65 1.187-1.02.954-1.75 2.118-1.99 3.502-.4 2.241.56 4.547 2.73 6.829l.26.278c1.14 1.296 1.64 2.525 1.55 3.675-.07.915-.5 1.765-1.13 2.485a1.14 1.14 0 0 0 .12 1.632 1.19 1.19 0 0 0 1.66-.12c.94-1.065 1.59-2.35 1.7-3.828.15-1.938-.7-3.861-2.43-5.698l-.29-.316c-1.5-1.676-2.09-3.196-1.85-4.542.26-1.462 1.37-2.5 2.41-3.031.58-.295.8-.994.5-1.561Zm-10.82 18.377c-11.3 0-20.81 7.807-23.64 18.422l-10.15 10.356-.11.124c-.19.262-.26.597-.19.92l3.7 17.414-10.59 9.896-.2.226c-2.14 2.479-1.55 6.923.87 9.396l.23.227c2.55 2.359 6.92 2.815 9.19.49l9.64-10.735 17.15 3.68.17.023c.32.021.64-.1.87-.336l10.56-10.777-.39-.394c10.06-3.109 17.39-12.648 17.39-23.931 0-13.805-10.97-25.001-24.5-25.001Zm-4.23 58.052 8.21-8.381c-1.29.217-2.63.329-3.98.329-13.53 0-24.5-11.194-24.5-24.999 0-.876.04-1.741.13-2.594l-7.39 7.538 3.71 17.448c.08.346-.01.703-.23.971l-.1.108-11.03 10.303c-1.37 1.404-.99 4.637.7 6.371 1.63 1.662 4.61 2.083 6.03.902l.16-.149 10.06-11.212c.33-.363.83-.463 1.25-.294l.07.029 16.91 3.63Zm-18.01-33.051c0-12.547 9.96-22.714 22.24-22.714 12.28 0 22.24 10.168 22.24 22.714s-9.96 22.712-22.24 22.712c-12.28 0-22.24-10.166-22.24-22.712Zm24.76 6.908c3.18 0 5.75 2.626 5.75 5.861s-2.57 5.861-5.75 5.861-5.75-2.627-5.75-5.861 2.57-5.861 5.75-5.861Zm-3.49 5.861c0-1.975 1.57-3.574 3.49-3.574 1.93 0 3.49 1.598 3.49 3.574 0 1.976-1.56 3.573-3.49 3.573-1.92 0-3.49-1.598-3.49-3.573Zm-10.66-10.949c2.79.36 4.85 2.748 4.52 5.39-.15 1.236-.93 1.957-1.83 2.015l-.14.002-.05.297c-.37 1.655-1.66 2.176-3.45 2.006l-.25-.028c-1.83-.237-3.04-1.002-3.1-2.628v-.238l.01-.375c-.85-.213-1.5-1.004-1.43-2.155l.02-.205c.32-2.649 2.9-4.442 5.7-4.081Zm-3.37 3.948.05-.129c.43-1.039 1.65-1.729 3.03-1.551l.23.037c1.34.266 2.29 1.296 2.35 2.423v.132l-.05-.033c-.64-.367-1.51-.002-1.66.793l-.29 1.623-.02.043c-.07.167-.35.234-1.19.127l-.2-.028c-.74-.114-.93-.261-.93-.49l.07-1.787v-.152a1.14 1.14 0 0 0-1.33-1.022l-.06.014Zm30.41-7.255c2.46 1.4 3.49 4.391 2.22 6.721-.6 1.09-1.58 1.463-2.45 1.171l-.12-.051-.16.247c-.95 1.402-2.34 1.394-3.93.556l-.23-.125c-1.61-.916-2.44-2.083-1.91-3.613l.09-.222.15-.346-.07-.055c-.66-.531-.93-1.481-.47-2.489l.09-.18c1.28-2.335 4.33-3.016 6.79-1.614Zm-4.57 2.375.11-.124c.78-.782 2.15-.944 3.35-.258l.21.128c1.14.756 1.64 2.063 1.3 3.129l-.05.131-.05-.067c-.47-.57-1.4-.553-1.82.125l-.87 1.39-.03.034c-.13.124-.41.08-1.14-.337l-.18-.102c-.65-.39-.77-.606-.68-.819l.72-1.63.05-.134c.2-.676-.25-1.345-.88-1.46l-.04-.006Zm-6.57-4.336c.54 1.143.25 2.195-.51 2.733l-.07.044.11.285c.58 1.59-.22 2.741-1.81 3.587l-.23.118c-1.66.819-3.08.849-4.01-.486l-.13-.2-.18-.317-.06.023c-.81.253-1.74-.059-2.29-1.032l-.1-.19c-1.1-2.319-.02-5.129 2.34-6.444l.25-.134c2.54-1.256 5.55-.396 6.69 2.013Zm-5.69.041.23-.105.24-.085c1.17-.378 2.37-.038 2.98.798l.09.136h-.06c-.74.04-1.28.826-.98 1.576l.62 1.526.01.046c.03.185-.18.403-.94.778l-.34.159c-.56.241-.76.213-.87.038l-.89-1.536-.1-.14c-.4-.518-1.14-.549-1.6-.159l-.09.084-.03-.148c-.18-1.103.48-2.352 1.73-2.968Zm-8.7-11.661c3.18 0 5.75 2.629 5.75 5.864 0 3.233-2.57 5.859-5.75 5.859s-5.75-2.626-5.75-5.859c0-3.235 2.57-5.864 5.75-5.864Zm-3.49 5.864c0-1.977 1.56-3.577 3.49-3.577 1.92 0 3.49 1.6 3.49 3.577 0 1.974-1.57 3.572-3.49 3.572-1.93 0-3.49-1.597-3.49-3.572Zm20.91-8.81c3.17 0 5.75 2.627 5.75 5.862 0 3.234-2.58 5.86-5.75 5.86-3.18 0-5.76-2.626-5.76-5.86 0-3.235 2.58-5.862 5.76-5.862Zm-3.5 5.862c0-1.977 1.57-3.575 3.5-3.575 1.92 0 3.49 1.599 3.49 3.575 0 1.975-1.57 3.573-3.49 3.573-1.93 0-3.5-1.598-3.5-3.573Zm-37.66 46.507a1.233 1.233 0 0 0-1.74.007l-.54.546-.12.138c-.36.482-.31 1.164.12 1.597.49.478 1.26.474 1.74-.007l.54-.546.12-.138c.36-.482.31-1.163-.12-1.597Z" fill="#FDF8F8"/></g><defs><clipPath id="a"><rect y=".719" width="1170" height="585.001" rx="20" fill="#fff"/></clipPath><clipPath id="c"><rect y=".719" width="1170" height="585.001" rx="20" fill="#fff"/></clipPath><filter id="b" x="-100" y="-99.281" width="1370" height="785.001" filterUnits="userSpaceOnUse" color-interpolation-filters="sRGB"><feFlood flood-opacity="0" result="BackgroundImageFix"/><feBlend in="SourceGraphic" in2="BackgroundImageFix" result="shape"/><feGaussianBlur stdDeviation="50" result="effect1_foregroundBlur_273_817"/></filter></defs></svg>